<svg xmlns="http://www.w3.org/2000/svg" width="710" height="384.603" viewBox="0 0 710 384.603">
  <g id="Group_26" data-name="Group 26" transform="translate(-866.5 -325.911)">
    <g id="Rectangle_23" data-name="Rectangle 23" transform="translate(1227 406)" fill="#f0d5a8" stroke="#656769" stroke-width="4">
      <rect width="114" height="301" stroke="none"/>
      <rect x="2" y="2" width="110" height="297" fill="none"/>
    </g>
    <path id="Path_23" data-name="Path 23" d="M1031.4,537.836V707.005h244.333V537.836l-28.5-44.991L1153.7,443.56l-93.2,48.224Z" fill="#fff" stroke="#656769" stroke-width="1"/>
    <line id="Line_3" data-name="Line 3" x2="55" transform="translate(1519.5 704.5)" fill="none" stroke="#656769" stroke-linecap="round" stroke-width="4"/>
    <line id="Line_4" data-name="Line 4" x2="32" transform="translate(868.5 708.5)" fill="none" stroke="#656769" stroke-linecap="round" stroke-width="4"/>
    <g id="Group_25" data-name="Group 25">
      <line id="Line_2" data-name="Line 2" y1="4" x2="594" transform="translate(910.5 704.5)" fill="none" stroke="#656769" stroke-linecap="round" stroke-width="4"/>
      <g id="Group_24" data-name="Group 24">
        <line id="Line_5" data-name="Line 5" y2="171" transform="translate(1031.5 535.5)" fill="none" stroke="#656769" stroke-linecap="round" stroke-width="5"/>
        <line id="Line_7" data-name="Line 7" x2="2" y2="169" transform="translate(1273.5 535.5)" fill="none" stroke="#656769" stroke-linecap="round" stroke-width="5"/>
        <g id="Group_21" data-name="Group 21" transform="translate(21 -5)">
          <path id="Path_17" data-name="Path 17" d="M984.369,579.849l53.859-82.508,93.968-51.568" fill="none" stroke="#656769" stroke-linecap="round" stroke-width="5"/>
          <path id="Path_18" data-name="Path 18" d="M1131.673,579.849,1078,497.341l-93.635-51.568" transform="translate(147.827)" fill="none" stroke="#656769" stroke-linecap="round" stroke-width="5"/>
        </g>
      </g>
      <g id="Rectangle_10" data-name="Rectangle 10" transform="translate(1050 590)" fill="#ff6242" stroke="#656769" stroke-width="4">
        <path d="M10,0H199a10,10,0,0,1,10,10V119a0,0,0,0,1,0,0H0a0,0,0,0,1,0,0V10A10,10,0,0,1,10,0Z" stroke="none"/>
        <path d="M10,2H199a8,8,0,0,1,8,8V115a2,2,0,0,1-2,2H4a2,2,0,0,1-2-2V10A8,8,0,0,1,10,2Z" fill="none"/>
      </g>
      <g id="Rectangle_11" data-name="Rectangle 11" transform="translate(1079 629)" fill="#fff" stroke="#656769" stroke-width="4">
        <rect width="152" height="21" rx="5" stroke="none"/>
        <rect x="2" y="2" width="148" height="17" rx="3" fill="none"/>
      </g>
      <g id="Rectangle_12" data-name="Rectangle 12" transform="translate(1092 646)" fill="#fff" stroke="#656769" stroke-width="4">
        <rect width="127" height="63" stroke="none"/>
        <rect x="2" y="2" width="123" height="59" fill="none"/>
      </g>
      <g id="Rectangle_13" data-name="Rectangle 13" transform="translate(1094 647.52)" fill="#ff866e" stroke="#656769" stroke-width="3">
        <rect width="40.741" height="60.122" stroke="none"/>
        <rect x="1.5" y="1.5" width="37.741" height="57.122" fill="none"/>
      </g>
      <g id="Rectangle_14" data-name="Rectangle 14" transform="translate(1133.696 647.52)" fill="#656769" stroke="#656769" stroke-width="3">
        <rect width="41.786" height="60.122" stroke="none"/>
        <rect x="1.5" y="1.5" width="38.786" height="57.122" fill="none"/>
      </g>
      <g id="Rectangle_15" data-name="Rectangle 15" transform="translate(1174.438 647.52)" fill="#ff866e" stroke="#656769" stroke-width="3">
        <rect width="41.786" height="60.122" stroke="none"/>
        <rect x="1.5" y="1.5" width="38.786" height="57.122" fill="none"/>
      </g>
      <line id="Line_8" data-name="Line 8" x2="38" y2="59" transform="translate(1095.5 648.5)" fill="none" stroke="#656769" stroke-width="3"/>
      <line id="Line_9" data-name="Line 9" x1="39" y2="61" transform="translate(1094.5 647.5)" fill="none" stroke="#656769" stroke-width="3"/>
      <line id="Line_10" data-name="Line 10" x2="38.018" y2="58" transform="translate(1176.482 648.5)" fill="none" stroke="#656769" stroke-width="3"/>
      <line id="Line_11" data-name="Line 11" x1="39.018" y2="60" transform="translate(1175.482 647.5)" fill="none" stroke="#656769" stroke-width="3"/>
      <path id="Path_19" data-name="Path 19" d="M1030.154,553.188c.067,1.718,204.857,1.783,204.846,0,.01-24.476,0-24.5,0-24.5l-25.875-42.8s-75.1-44.068-77.195-44.105-78.057,44.105-78.057,44.105l-23.719,42.8S1029.91,529,1030.154,553.188Z" transform="translate(21 25)" fill="#ff6242" stroke="#656769" stroke-linecap="round" stroke-width="4"/>
      <g id="Rectangle_21" data-name="Rectangle 21" transform="translate(1133 524)" fill="#656769" stroke="#656769" stroke-width="4">
        <rect width="41" height="57" rx="5" stroke="none"/>
        <rect x="2" y="2" width="37" height="53" rx="3" fill="none"/>
      </g>
      <g id="Path_20" data-name="Path 20" transform="translate(1172 539)" fill="#ff866e" stroke-linecap="round">
        <path d="M 20 40 L 1 40 L 1 1 L 20 1 L 20 40 Z" stroke="none"/>
        <path d="M 2 2 L 2 39 L 19 39 L 19 2 L 2 2 M 0 0 L 21 0 L 21 41 L 0 41 L 0 0 Z" stroke="none" fill="#656769"/>
      </g>
      <line id="Line_12" data-name="Line 12" x2="18" y2="39" transform="translate(1173.5 539.5)" fill="none" stroke="#656769" stroke-width="2"/>
      <line id="Line_13" data-name="Line 13" y1="39" x2="18" transform="translate(1173.5 539.5)" fill="none" stroke="#656769" stroke-width="2"/>
      <g id="Group_23" data-name="Group 23" transform="translate(-60)">
        <g id="Path_20-2" data-name="Path 20" transform="translate(1174 539)" fill="#ff866e">
          <path d="M 20 40 L 1 40 L 1 1 L 20 1 L 20 40 Z" stroke="none"/>
          <path d="M 2 2 L 2 39 L 19 39 L 19 2 L 2 2 M 0 0 L 21 0 L 21 41 L 0 41 L 0 0 Z" stroke="none" fill="#656769"/>
        </g>
        <line id="Line_12-2" data-name="Line 12" x2="18" y2="39" transform="translate(1175.5 539.5)" fill="none" stroke="#656769" stroke-width="2"/>
        <line id="Line_13-2" data-name="Line 13" y1="39" x2="18" transform="translate(1175.5 539.5)" fill="none" stroke="#656769" stroke-width="2"/>
      </g>
      <path id="Path_21" data-name="Path 21" d="M1128.378,441.369s-.337-33.7,0-33.736c20.741-.335,35.13-.2,50.617,0,.224.006,0,33.736,0,33.736l-25.427-9.86Z" transform="translate(0 12.926)" fill="#ff866e" stroke="#656769" stroke-width="4"/>
      <g id="Rectangle_22" data-name="Rectangle 22" transform="translate(1138 391)" fill="#fff" stroke="#656769" stroke-width="4">
        <rect width="31" height="31" stroke="none"/>
        <rect x="2" y="2" width="27" height="27" fill="none"/>
      </g>
      <path id="Path_22" data-name="Path 22" d="M1125.981,377.925c10.352.026,31.2.188,42.017,0,.249,0-21.911-24.253-22.059-24.253S1125.8,377.937,1125.981,377.925Z" transform="translate(7 14)" fill="#bdbec0" stroke="#656769" stroke-width="4"/>
    </g>
    <path id="Path_24" data-name="Path 24" d="M1229.132,408.275s-2.389-80.364,53.6-80.364,55.929,79.867,55.929,79.867Z" fill="#f0d5a8" stroke="#656769" stroke-width="4"/>
    <line id="Line_14" data-name="Line 14" y2="71" transform="translate(1247.5 383.5)" fill="none" stroke="#656769" stroke-linecap="round" stroke-width="4"/>
    <line id="Line_16" data-name="Line 16" y2="107" transform="translate(1275.5 383.5)" fill="none" stroke="#656769" stroke-linecap="round" stroke-width="4"/>
    <line id="Line_17" data-name="Line 17" x1="1" y2="173" transform="translate(1299.5 383.5)" fill="none" stroke="#656769" stroke-linecap="round" stroke-width="4"/>
    <line id="Line_18" data-name="Line 18" x1="1" y2="173" transform="translate(1323.5 383.5)" fill="none" stroke="#656769" stroke-linecap="round" stroke-width="4"/>
    <line id="Line_19" data-name="Line 19" x2="2" y2="302" transform="translate(1364.5 383.5)" fill="none" stroke="#656769" stroke-linecap="round" stroke-width="4"/>
    <line id="Line_20" data-name="Line 20" x1="27" transform="translate(1338.5 407.5)" fill="none" stroke="#656769" stroke-width="4"/>
    <line id="Line_22" data-name="Line 22" x1="27" transform="translate(1338.5 517.5)" fill="none" stroke="#656769" stroke-width="4"/>
    <line id="Line_24" data-name="Line 24" x1="27" transform="translate(1338.5 557.5)" fill="none" stroke="#656769" stroke-width="4"/>
    <line id="Line_26" data-name="Line 26" x1="27" transform="translate(1338.5 597.5)" fill="none" stroke="#656769" stroke-width="4"/>
    <line id="Line_27" data-name="Line 27" x1="27" transform="translate(1338.5 637.5)" fill="none" stroke="#656769" stroke-width="4"/>
    <line id="Line_29" data-name="Line 29" x1="27" transform="translate(1338.5 677.5)" fill="none" stroke="#656769" stroke-width="4"/>
    <line id="Line_30" data-name="Line 30" x1="27" transform="translate(1338.5 477.5)" fill="none" stroke="#656769" stroke-width="4"/>
    <line id="Line_31" data-name="Line 31" x1="27" transform="translate(1338.5 442.5)" fill="none" stroke="#656769" stroke-width="4"/>
    <line id="Line_32" data-name="Line 32" x1="1" y1="70" transform="translate(955.5 637.5)" fill="none" stroke="#656769" stroke-width="4"/>
    <path id="Path_25" data-name="Path 25" d="M955.5,527.137s-18.545,68.9-18.818,75.691-4.264,36.494,18.818,36.494,20.672-28.025,20.379-36.494S955.5,527.137,955.5,527.137Z" fill="#6dd627" stroke="#656769" stroke-width="4"/>
  </g>
</svg>
